<?xml version="1.0" encoding="utf-8"?>
<!-- Generated by IcoMoon.io -->
<!DOCTYPE svg PUBLIC "-//W3C//DTD SVG 1.1//EN" "http://www.w3.org/Graphics/SVG/1.1/DTD/svg11.dtd">
<svg version="1.1" xmlns="http://www.w3.org/2000/svg" xmlns:xlink="http://www.w3.org/1999/xlink" width="20" height="20" viewBox="0 0 20 20">
	<path d="M8.062 11.78l-3.523-1.41v1.193l3.523 1.41v-1.193zM8.062 8.12l-3.523-1.409v1.193l3.523 1.409v-1.193zM17.54 2.005c-0.241-0.164-0.55-0.197-0.821-0.089l-6.719 2.688-6.719-2.688c-0.271-0.108-0.579-0.075-0.821 0.089-0.241 0.164-0.387 0.437-0.387 0.729v11.273c0 0.36 0.219 0.683 0.553 0.818l7.031 2.812c0 0 0.144 0.047 0.171 0.052 0.057 0.011 0.114 0.017 0.172 0.017 0.056 0 0.114-0.006 0.171-0.018 0.026-0.005 0.171-0.053 0.171-0.053l7.030-2.811c0.336-0.134 0.555-0.457 0.555-0.817v-11.273c0-0.292-0.145-0.565-0.387-0.729zM9.119 15.904l-5.637-2.255v-9.871l5.637 2.256v9.87zM16.517 13.651l-5.637 2.255v-9.871l5.637-2.256v9.872zM15.461 10.37l-3.524 1.41v1.193l3.524-1.41v-1.193zM15.461 6.711l-3.524 1.409v1.193l3.524-1.409v-1.193z" fill="#777777" />
</svg>
