<?xml version="1.0" encoding="utf-8"?>
<!-- Generated by IcoMoon.io -->
<!DOCTYPE svg PUBLIC "-//W3C//DTD SVG 1.1//EN" "http://www.w3.org/Graphics/SVG/1.1/DTD/svg11.dtd">
<svg version="1.1" xmlns="http://www.w3.org/2000/svg" xmlns:xlink="http://www.w3.org/1999/xlink" width="20" height="20" viewBox="0 0 20 20">
	<path d="M18.257 4.495h-3.028l-0.826-1.651c0-0.304-0.246-0.55-0.55-0.55h-7.706c-0.304 0-0.55 0.247-0.55 0.55l-0.826 1.651h-3.028c-0.304 0-0.55 0.247-0.55 0.55v12.11c0 0.304 0.247 0.55 0.55 0.55h16.514c0.304 0 0.55-0.246 0.55-0.55v-12.11c0-0.304-0.246-0.55-0.55-0.55zM10 15.505c-2.432 0-4.404-1.972-4.404-4.404s1.972-4.404 4.404-4.404 4.404 1.972 4.404 4.404c0 2.432-1.972 4.404-4.404 4.404zM10 8.899c-1.216 0-2.202 0.986-2.202 2.202s0.986 2.202 2.202 2.202 2.202-0.986 2.202-2.202-0.986-2.202-2.202-2.202z" fill="#777777" />
</svg>
