<?xml version="1.0" encoding="utf-8"?>
<!-- Generated by IcoMoon.io -->
<!DOCTYPE svg PUBLIC "-//W3C//DTD SVG 1.1//EN" "http://www.w3.org/Graphics/SVG/1.1/DTD/svg11.dtd">
<svg version="1.1" xmlns="http://www.w3.org/2000/svg" xmlns:xlink="http://www.w3.org/1999/xlink" width="20" height="20" viewBox="0 0 20 20">
	<path d="M17.706 5.596h-4.404v-1.101c0-0.606-0.495-1.101-1.101-1.101h-4.404c-0.606 0-1.101 0.495-1.101 1.101v1.101h-4.404c-0.606 0-1.101 0.495-1.101 1.101v9.908c0 0.606 0.495 1.101 1.101 1.101h15.413c0.606 0 1.101-0.495 1.101-1.101v-9.908c0-0.606-0.495-1.101-1.101-1.101zM7.798 4.497c0.001-0.001 0.001-0.001 0.002-0.002h4.4c0.001 0.001 0.001 0.001 0.002 0.002v1.099h-4.404v-1.099zM17.706 10h-2.202v1.651c0 0.303-0.248 0.55-0.55 0.55h-1.101c-0.303 0-0.55-0.248-0.55-0.55v-1.651h-6.606v1.651c0 0.303-0.248 0.55-0.55 0.55h-1.101c-0.303 0-0.55-0.248-0.55-0.55v-1.651h-2.202v-1.101h15.413v1.101z" fill="#777777" />
</svg>
