<?xml version="1.0" encoding="utf-8"?>
<!-- Generated by IcoMoon.io -->
<!DOCTYPE svg PUBLIC "-//W3C//DTD SVG 1.1//EN" "http://www.w3.org/Graphics/SVG/1.1/DTD/svg11.dtd">
<svg version="1.1" xmlns="http://www.w3.org/2000/svg" xmlns:xlink="http://www.w3.org/1999/xlink" width="20" height="20" viewBox="0 0 20 20">
	<path d="M15.505 6.697h-1.101v-1.651c0-1.52-2.957-2.752-6.606-2.752s-6.606 1.232-6.606 2.752v9.908c0 1.52 2.957 2.752 6.606 2.752s6.606-1.232 6.606-2.752v-1.651h1.101c1.817 0 3.303-1.486 3.303-3.303s-1.486-3.303-3.303-3.303zM4.221 4.454c0.997-0.328 2.267-0.509 3.577-0.509s2.58 0.181 3.577 0.509c0.636 0.21 1.022 0.434 1.228 0.592-0.206 0.157-0.592 0.382-1.228 0.592-0.997 0.328-2.267 0.509-3.577 0.509s-2.58-0.181-3.577-0.509c-0.636-0.21-1.022-0.434-1.228-0.592 0.206-0.157 0.592-0.382 1.228-0.592zM16.749 10.97c-0.152 0.152-0.48 0.407-0.97 0.407h-1.376v-2.752h1.376c0.49 0 0.818 0.255 0.97 0.407s0.407 0.48 0.407 0.97-0.255 0.818-0.407 0.97z" fill="#777777" />
</svg>
