<?xml version="1.0" encoding="utf-8"?>
<!-- Generated by IcoMoon.io -->
<!DOCTYPE svg PUBLIC "-//W3C//DTD SVG 1.1//EN" "http://www.w3.org/Graphics/SVG/1.1/DTD/svg11.dtd">
<svg version="1.1" xmlns="http://www.w3.org/2000/svg" xmlns:xlink="http://www.w3.org/1999/xlink" width="20" height="20" viewBox="0 0 20 20">
	<path d="M15.505 8.899h-1.101v-3.303c0-2.432-1.972-4.404-4.404-4.404s-4.404 1.972-4.404 4.404v3.303h-1.101c-0.606 0-1.101 0.495-1.101 1.101v7.706c0 0.606 0.495 1.101 1.101 1.101h11.009c0.606 0 1.101-0.495 1.101-1.101v-7.706c0-0.606-0.495-1.101-1.101-1.101zM10 15.505c-0.608 0-1.101-0.493-1.101-1.101s0.493-1.101 1.101-1.101 1.101 0.493 1.101 1.101-0.493 1.101-1.101 1.101zM12.202 8.899h-4.404v-3.303c0-1.214 0.988-2.202 2.202-2.202s2.202 0.988 2.202 2.202v3.303z" fill="#777777" />
</svg>
