<?xml version="1.0" encoding="utf-8"?>
<!-- Generated by IcoMoon.io -->
<!DOCTYPE svg PUBLIC "-//W3C//DTD SVG 1.1//EN" "http://www.w3.org/Graphics/SVG/1.1/DTD/svg11.dtd">
<svg version="1.1" xmlns="http://www.w3.org/2000/svg" xmlns:xlink="http://www.w3.org/1999/xlink" width="20" height="20" viewBox="0 0 20 20">
	<path d="M13.531 9.068c-0.001 0-0.001 0-0.002 0h-0.149c-0.001 0-0.001-0-0.002-0-0.143 0-0.259 0.116-0.259 0.259v0l0 1.347v0.035h0.007c0.017 0.126 0.121 0.224 0.252 0.224v0h0.152v-0c0 0 0.001 0 0.001 0 0.131 0 0.234-0.098 0.252-0.224h0.007v-1.382c0-0.143-0.116-0.259-0.259-0.259zM14.494 9.068c-0.001 0-0.001 0-0.002 0h-0.149c-0.001 0-0.001-0-0.002-0-0.143 0-0.259 0.116-0.259 0.259h-0l0 1.382h0.007c0.017 0.126 0.121 0.224 0.252 0.224v0h0.152v-0c0 0 0.001 0 0.001 0 0.131 0 0.234-0.098 0.252-0.224h0.007v-1.382c-0-0.143-0.116-0.259-0.259-0.259zM10 1.484c-4.703 0-8.516 3.813-8.516 8.516 0 4.703 3.812 8.515 8.516 8.515 4.703 0 8.516-3.812 8.516-8.515 0-4.703-3.812-8.516-8.516-8.516zM10 16.259c-3.451 0-6.258-2.807-6.258-6.258 0-1.522 0.547-2.919 1.453-4.005l3.072 3.072h-2.759c-0.001 0-0.001-0-0.002-0-0.143 0-0.259 0.116-0.259 0.259l0 0.001h-0v1.347c0 0.143 0.116 0.259 0.259 0.259h4.626l3.873 3.873c-1.086 0.906-2.482 1.453-4.005 1.453zM14.805 14.005l-3.072-3.072h0.786c0.143 0 0.259-0.116 0.259-0.259v-1.346l0-0.001c0-0.143-0.116-0.259-0.259-0.259-0.001 0-0.001 0-0.002 0h-2.649l-3.873-3.873c1.086-0.907 2.482-1.453 4.004-1.453 3.451 0 6.258 2.808 6.258 6.259 0 1.522-0.547 2.918-1.453 4.004z" fill="#777777" />
</svg>
