<?xml version="1.0" encoding="utf-8"?>
<!-- Generated by IcoMoon.io -->
<!DOCTYPE svg PUBLIC "-//W3C//DTD SVG 1.1//EN" "http://www.w3.org/Graphics/SVG/1.1/DTD/svg11.dtd">
<svg version="1.1" xmlns="http://www.w3.org/2000/svg" xmlns:xlink="http://www.w3.org/1999/xlink" width="25" height="20" viewBox="0 0 25 20">
	<path d="M12.5 11.101c1.821 0 3.473 0.741 4.669 1.937l-1.556 1.556c-0.797-0.797-1.898-1.291-3.112-1.291s-2.315 0.494-3.112 1.291l-1.556-1.556c1.196-1.196 2.847-1.937 4.669-1.937zM4.715 9.922c2.079-2.079 4.844-3.225 7.785-3.225 2.941 0 5.705 1.145 7.785 3.225l-1.557 1.557c-1.664-1.663-3.875-2.58-6.228-2.58-2.353 0-4.564 0.916-6.228 2.58l-1.557-1.557zM18.5 3.505c1.835 0.776 3.484 1.888 4.899 3.303v0l-1.557 1.557c-2.495-2.495-5.813-3.869-9.342-3.869-3.529 0-6.846 1.374-9.342 3.869l-1.557-1.557c1.415-1.415 3.063-2.526 4.899-3.303 1.901-0.804 3.92-1.212 6-1.212 2.080 0 4.099 0.408 6 1.212zM11.399 16.606c0 0.608 0.493 1.101 1.101 1.101s1.101-0.493 1.101-1.101c0-0.608-0.493-1.101-1.101-1.101-0.608 0-1.101 0.493-1.101 1.101z" fill="#777777" />
</svg>
